<svg width="31" height="24" viewBox="0 0 31 24" fill="none" xmlns="http://www.w3.org/2000/svg">
<path d="M30.25 13.5506V20.7825C30.2159 20.8699 30.1801 20.9568 30.149 21.0448C29.9171 21.699 29.4557 22.1155 28.7811 22.3082C28.6531 22.3451 28.5193 22.3617 28.3772 22.3899C28.3772 22.6298 28.379 22.8496 28.3772 23.0688C28.3719 23.6148 28.0244 23.9911 27.5189 23.9997C27.0017 24.0083 26.63 23.6252 26.6224 23.0728C26.6195 22.8473 26.6224 22.6218 26.6224 22.402H3.87709C3.87709 22.673 3.88824 22.921 3.87474 23.1684C3.84773 23.6574 3.45556 24.0118 2.97239 23.9997C2.50155 23.9876 2.13874 23.6257 2.12523 23.1459C2.11819 22.8979 2.12406 22.65 2.12406 22.4026C2.07064 22.3836 2.03541 22.3669 1.99784 22.3594C0.810171 22.1126 0.250094 21.4355 0.250094 20.244C0.250094 18.178 0.249507 16.1114 0.251268 14.0454C0.251268 13.8929 0.251268 13.7376 0.279448 13.5886C0.430915 12.79 0.932871 12.2901 1.71545 12.0266C1.71545 11.8304 1.71134 11.6394 1.71604 11.4489C1.7407 10.525 2.11232 9.7615 2.8538 9.18848C3.02875 9.05327 3.08159 8.91635 3.081 8.70923C3.07396 6.80547 3.06926 4.90171 3.07924 2.99853C3.08864 1.26047 4.36906 0.00337575 6.12796 0.0022251C12.2119 -0.00180219 18.2958 -7.62122e-05 24.3798 0.00510173C24.6598 0.00510173 24.9481 0.0355941 25.2175 0.106359C26.569 0.461336 27.4185 1.593 27.4226 3.03362C27.4279 4.93738 27.4261 6.84057 27.4203 8.74432C27.4197 8.93361 27.4743 9.055 27.6322 9.17409C28.2445 9.63723 28.6244 10.2494 28.7359 11.0019C28.7858 11.3402 28.7858 11.686 28.8011 11.923C29.1809 12.2147 29.5443 12.4293 29.8167 12.7239C30.0216 12.9454 30.1103 13.271 30.25 13.55V13.5506ZM15.2706 13.6979C10.9943 13.6979 6.71798 13.6979 2.44167 13.6979C2.02954 13.6979 2.00606 13.7209 2.00606 14.1139C2.00606 16.1603 2.00606 18.2073 2.00606 20.2537C2.00606 20.6289 2.03541 20.657 2.42934 20.657C10.972 20.657 19.5152 20.657 28.0578 20.657C28.4641 20.657 28.4934 20.6283 28.4934 20.2371C28.4934 18.2476 28.4934 16.2587 28.4934 14.2692C28.4934 13.8883 28.3034 13.6979 27.9234 13.6979C23.7058 13.6979 19.4876 13.6979 15.27 13.6979H15.2706ZM25.669 8.52915C25.669 8.402 25.669 8.30765 25.669 8.2133C25.669 6.50112 25.6702 4.78895 25.669 3.07677C25.6684 2.18559 25.1894 1.72073 24.2735 1.72015C18.2583 1.72015 12.243 1.72015 6.22777 1.72015C5.31133 1.72015 4.83286 2.18502 4.83168 3.0762C4.83051 4.78837 4.83168 6.50055 4.83168 8.21272C4.83168 8.31398 4.83168 8.41466 4.83168 8.52512H6.00233C6.00233 8.02171 5.99469 7.53614 6.00409 7.05056C6.02522 5.9327 6.85888 5.11458 7.99488 5.10883C9.55711 5.10078 11.1199 5.10768 12.6821 5.10653C13.2052 5.10653 13.6579 5.28085 14.036 5.63008C14.4651 6.0259 14.6547 6.52529 14.6571 7.09659C14.6589 7.57066 14.6571 8.04473 14.6571 8.52225H15.8459C15.8459 8.01423 15.8377 7.52693 15.8477 7.0402C15.8706 5.9373 16.7025 5.11631 17.8197 5.10998C19.3919 5.10078 20.9641 5.10078 22.5363 5.10998C23.5438 5.11573 24.3363 5.78369 24.4631 6.76635C24.5254 7.24675 24.4901 7.7398 24.5007 8.2271C24.5031 8.32721 24.5119 8.42732 24.5177 8.5303H25.6702L25.669 8.52915ZM27.014 11.9587C27.0645 11.4276 27.0428 10.9369 26.5995 10.5578C26.2978 10.2994 25.9414 10.2574 25.561 10.258C18.6892 10.2609 11.8168 10.2597 4.94499 10.2603C4.83756 10.2603 4.73012 10.2626 4.62327 10.2678C4.25987 10.2868 3.9722 10.449 3.74382 10.7194C3.43678 11.083 3.44793 11.5088 3.48785 11.9587H27.0146H27.014ZM20.1663 6.82503C19.4248 6.82503 18.6833 6.83078 17.9418 6.82158C17.6882 6.8187 17.5902 6.91823 17.5972 7.16217C17.6072 7.51542 17.6042 7.86925 17.5984 8.22308C17.5949 8.4371 17.6847 8.54353 17.9084 8.54296C19.4207 8.54123 20.933 8.54181 22.4453 8.54238C22.652 8.54238 22.7471 8.444 22.7447 8.24149C22.7412 7.89744 22.7447 7.5534 22.7436 7.20935C22.7418 6.86243 22.7072 6.82618 22.3614 6.82503C21.6299 6.82331 20.8978 6.82503 20.1663 6.82503ZM10.3438 6.82503C9.59233 6.82503 8.84146 6.82963 8.08999 6.82215C7.85457 6.81985 7.74948 6.90845 7.75477 7.14261C7.7624 7.50564 7.76123 7.86925 7.75477 8.23228C7.75125 8.45148 7.85516 8.54411 8.07414 8.54353C9.57648 8.54181 11.0794 8.54181 12.5818 8.54353C12.7996 8.54353 12.9052 8.45263 12.9017 8.23286C12.8964 7.87961 12.8912 7.5252 12.9035 7.17195C12.9129 6.91018 12.8019 6.81755 12.5383 6.821C11.8068 6.83136 11.0747 6.82446 10.3432 6.82446L10.3438 6.82503Z" fill="#F2BC20"/>
</svg>
