<svg width="23" height="24" viewBox="0 0 23 24" fill="none" xmlns="http://www.w3.org/2000/svg">
<path fill-rule="evenodd" clip-rule="evenodd" d="M16.916 1.16634C16.916 0.568033 16.431 0.0830078 15.8327 0.0830078C15.2344 0.0830078 14.7493 0.568033 14.7493 1.16634V2.24967H8.24935V1.16634C8.24935 0.568033 7.76432 0.0830078 7.16602 0.0830078C6.56771 0.0830078 6.08268 0.568033 6.08268 1.16634V2.24967H3.91602C2.12109 2.24967 0.666016 3.70475 0.666016 5.49967V20.6663C0.666016 22.4613 2.12109 23.9163 3.91602 23.9163H19.0827C20.8776 23.9163 22.3327 22.4613 22.3327 20.6663V5.49967C22.3327 3.70475 20.8776 2.24967 19.0827 2.24967H16.916V1.16634ZM20.166 8.74967V5.49967C20.166 4.90137 19.681 4.41634 19.0827 4.41634H16.916V5.49967C16.916 6.09798 16.431 6.58301 15.8327 6.58301C15.2344 6.58301 14.7493 6.09798 14.7493 5.49967V4.41634H8.24935V5.49967C8.24935 6.09798 7.76432 6.58301 7.16602 6.58301C6.56771 6.58301 6.08268 6.09798 6.08268 5.49967V4.41634H3.91602C3.31771 4.41634 2.83268 4.90137 2.83268 5.49967V8.74967H20.166ZM2.83268 10.9163H20.166V20.6663C20.166 21.2646 19.681 21.7497 19.0827 21.7497H3.91602C3.31771 21.7497 2.83268 21.2646 2.83268 20.6663V10.9163Z" fill="#F2BC20"/>
</svg>
