<svg width="133" height="61" viewBox="0 0 133 61" fill="none" xmlns="http://www.w3.org/2000/svg">
<path d="M103.279 50.6044C103.098 50.9022 102.943 51.1154 102.831 51.3485C102.494 52.049 102.18 52.7603 101.846 53.4619C101.345 54.5145 100.86 55.5753 100.323 56.6091C99.8406 57.5362 99.2256 58.3786 98.4732 59.1122C97.5634 59.9987 96.5127 60.6299 95.2496 60.8683C93.576 61.1838 92.0328 60.866 90.6266 59.9046C89.8618 59.3815 89.2344 58.7179 88.6879 57.9749C87.9408 56.9585 87.374 55.8412 86.8498 54.6994C86.5045 53.9473 86.1689 53.1908 85.8078 52.4463C85.6278 52.0753 85.4071 51.7228 85.1913 51.3703C84.6008 50.4059 83.4952 50.4492 82.8373 50.7945C82.4987 50.9723 82.1816 51.2197 81.9112 51.492C81.4522 51.9537 81.0266 52.4508 80.6067 52.9498C79.8795 53.8136 79.1768 54.6982 78.4466 55.5595C77.5274 56.6437 76.5257 57.6447 75.3827 58.498C73.3653 60.0036 71.1028 60.8272 68.5864 60.9579C66.0113 61.0916 63.5646 60.6389 61.2942 59.377C59.6466 58.4611 58.2811 57.2157 57.1137 55.7482C56.7394 55.2774 56.3831 54.7898 56.0506 54.2885C54.7788 52.3721 53.3075 50.6074 51.8957 48.7975C51.8671 48.7606 51.8253 48.7342 51.7612 48.6781C51.7266 48.7994 51.6953 48.8913 51.6746 48.9854C51.2333 50.984 50.6914 52.952 49.8723 54.8338C49.2935 56.1632 48.5866 57.4161 47.6282 58.5142C46.7635 59.505 45.755 60.3045 44.4822 60.6947C42.5687 61.2818 40.7615 61.0008 39.0759 59.9324C38.3284 59.4587 37.6738 58.8693 37.0984 58.2028C36.4432 57.4432 35.8191 56.6565 35.1921 55.8732C34.2043 54.6391 33.258 53.3708 32.2363 52.1653C29.9873 49.5123 27.3497 47.3028 24.398 45.4658C24.3023 45.4063 24.2074 45.3449 24.1133 45.2824C24.0933 45.2692 24.0794 45.2463 24.0323 45.1947C24.9565 43.6793 25.887 42.1534 26.8289 40.6086C26.9731 40.6926 27.091 40.7581 27.2058 40.8285C31.3317 43.3731 34.8555 46.5854 37.8267 50.4089C38.6658 51.489 39.4913 52.5796 40.3393 53.6521C40.6809 54.0844 41.0511 54.4972 41.4386 54.8888C41.6555 55.108 41.9229 55.2865 42.1899 55.4454C42.4979 55.6288 42.8312 55.6137 43.0978 55.3629C43.3882 55.0895 43.6736 54.8018 43.9109 54.4832C44.37 53.8667 44.6946 53.1712 44.9887 52.4632C45.6839 50.7885 46.1561 49.0464 46.4852 47.2689C46.7428 45.8771 46.9255 44.4713 47.1511 43.0734C47.1872 42.8485 47.0987 42.6968 46.9737 42.5292C45.1679 40.1043 43.3396 37.6953 41.5727 35.2422C39.4382 32.2785 37.4486 29.2176 35.684 26.0166C34.4653 23.8056 33.3679 21.5389 32.5967 19.1276C32.0785 17.5072 31.7279 15.8555 31.7456 14.1439C31.7543 13.3003 31.8687 12.4688 32.1139 11.6588C32.5794 10.12 33.4425 8.85396 34.7425 7.90345C36.2097 6.8313 37.8685 6.25889 39.6754 6.15344C41.7026 6.03482 43.5076 6.66523 45.1133 7.88876C46.132 8.66491 46.9643 9.61542 47.6835 10.6684C48.8389 12.3596 49.6576 14.2139 50.3204 16.1421C51.1052 18.4242 51.6434 20.7688 52.0433 23.1451C52.7445 27.312 53.0364 31.5129 52.9934 35.7348C52.9761 37.4272 52.8744 39.1188 52.7991 40.8104C52.7878 41.0646 52.8454 41.2608 53.0062 41.4612C53.8313 42.4881 54.6425 43.5264 55.4593 44.5601C55.5365 44.6577 55.6179 44.7514 55.706 44.8576C55.8649 44.7627 55.8589 44.5955 55.9105 44.4664C57.2929 41.0115 59.7012 38.5705 63.1632 37.2005C64.8209 36.5445 66.5608 36.3535 68.3379 36.4537C72.1565 36.6687 75.2374 38.3197 77.6566 41.2428C78.7449 42.5578 79.4777 44.0593 79.8664 45.7249C79.8946 45.8462 79.9289 45.9659 79.9752 46.1418C80.1206 46.0721 80.2494 46.0115 80.3774 45.9494C82.4106 44.9608 84.4822 44.8949 86.5745 45.7279C87.7344 46.19 88.6439 46.9914 89.4038 47.9694C90.0233 48.7662 90.5061 49.6441 90.929 50.5569C91.3508 51.4671 91.7515 52.3875 92.1985 53.2849C92.4659 53.8216 92.7878 54.3341 93.1185 54.8353C93.2669 55.0605 93.4811 55.2507 93.6932 55.4228C93.9338 55.6183 94.2155 55.6137 94.4576 55.4205C94.6516 55.2658 94.8493 55.0948 94.9849 54.8911C95.3106 54.4015 95.639 53.9067 95.8973 53.3802C96.405 52.345 96.8501 51.2792 97.3502 50.2402C97.7193 49.4731 98.1105 48.7139 98.5365 47.9773C98.9153 47.322 99.4267 46.7654 100.026 46.2958C102.038 44.719 104.867 44.7981 106.787 46.4841C107.505 47.1145 108.062 47.873 108.478 48.7233C109.006 49.8041 109.487 50.9079 109.985 52.003C110.313 52.7219 110.625 53.4476 110.964 54.1605C111.104 54.4531 111.276 54.7359 111.47 54.995C111.98 55.6744 112.839 55.7828 113.482 55.2194C113.768 54.969 114.003 54.6421 114.199 54.313C114.595 53.6498 114.803 52.9106 114.959 52.1589C115.345 50.3001 115.372 48.4262 115.203 46.5417C115.026 44.5677 114.587 42.6599 113.834 40.8225C113.293 39.4999 112.784 38.1642 112.262 36.8337C112.208 36.697 112.162 36.5576 112.096 36.3757C112.256 36.3757 112.367 36.3746 112.478 36.3757C113.357 36.3863 114.237 36.369 115.113 36.4138C116.667 36.4929 118.162 36.2089 119.634 35.7634C122.728 34.8272 125.543 33.3371 128.157 31.4507C128.349 31.3118 128.541 31.1717 128.776 31.0015C129.87 32.4359 130.954 33.8564 132.059 35.3059C128.35 38.1141 124.323 40.2139 119.763 41.3298C119.793 41.4725 119.816 41.602 119.849 41.7286C120.47 44.1094 120.757 46.5327 120.725 48.9899C120.698 51.0679 120.452 53.1181 119.767 55.0956C119.374 56.2295 118.848 57.2944 118.094 58.2344C116.941 59.67 115.478 60.6095 113.643 60.8882C111.255 61.2505 109.195 60.6152 107.565 58.7756C106.919 58.0472 106.403 57.23 105.996 56.3507C105.448 55.1679 104.941 53.9658 104.406 52.7769C104.154 52.2169 103.883 51.6656 103.611 51.115C103.535 50.9614 103.425 50.8243 103.281 50.6044H103.279ZM67.7689 55.6066C68.3025 55.5384 68.8455 55.5113 69.3686 55.3957C73.0697 54.5781 75.4411 50.8303 74.6277 47.1277C74.3128 45.6952 73.5446 44.5481 72.4363 43.6232C70.2607 41.8073 67.7866 41.3829 65.1342 42.269C62.4673 43.16 60.6303 45.8115 60.5749 48.622C60.5414 50.3242 61.0272 51.8335 62.1935 53.1C63.693 54.7284 65.544 55.5648 67.7685 55.607L67.7689 55.6066ZM47.4621 34.1716C47.4941 34.1648 47.5261 34.1576 47.5578 34.1509C47.5578 34.0183 47.5597 33.8857 47.5578 33.7532C47.5047 30.3759 47.2151 27.0198 46.6306 23.6919C46.2642 21.6041 45.7758 19.5449 45.0599 17.5456C44.6068 16.2799 44.0736 15.0515 43.3362 13.9209C42.9299 13.2984 42.4697 12.7215 41.8894 12.2493C41.535 11.9608 41.1494 11.7209 40.6982 11.6309C39.6174 11.4151 38.6662 11.7349 37.8143 12.3909C37.5386 12.6033 37.3858 12.9124 37.2991 13.2476C37.173 13.7372 37.1391 14.2339 37.1794 14.7393C37.2566 15.7079 37.4859 16.6425 37.7864 17.5618C38.4157 19.4873 39.2943 21.3024 40.258 23.0777C41.9116 26.1235 43.8134 29.0127 45.8032 31.8461C46.3504 32.6253 46.9085 33.3969 47.4617 34.172L47.4621 34.1716ZM15.1855 20.312C13.8573 17.871 12.2963 15.5889 10.4609 13.4385C10.625 13.3677 10.7474 13.3128 10.8713 13.2619C14.2173 11.8915 17.4899 10.3667 20.646 8.59863C22.8269 7.37698 24.9373 6.04612 26.929 4.53261C27.0439 4.44524 27.1527 4.35034 27.2729 4.25168C26.1484 2.81123 25.0544 1.40957 23.954 0C23.8395 0.0805898 23.7567 0.135572 23.6776 0.195826C22.4977 1.09248 21.2697 1.91871 20.0051 2.69034C16.4298 4.87154 12.656 6.65205 8.79069 8.25066C6.08717 9.36875 3.30456 10.2598 0.532119 11.1809C0.369809 11.2347 0.20863 11.2927 0 11.3654C0.138961 11.4844 0.23838 11.5752 0.343825 11.6592C1.364 12.4726 2.37928 13.2932 3.4085 14.0953C4.28293 14.7769 5.08017 15.538 5.8164 16.3635C8.95488 19.8831 11.2668 23.8862 12.8126 28.336C12.8492 28.4407 12.8752 28.5491 12.9166 28.6934C8.4013 29.8996 4.536 32.2442 1.01076 35.2671C2.20567 36.6525 3.36669 37.9985 4.54843 39.3685C7.43422 36.918 10.5516 34.9447 14.2399 33.9614C14.2746 34.0838 14.3051 34.1535 14.3137 34.2262C14.4704 35.5329 14.6613 36.8367 14.7698 38.1472C14.9125 39.8739 14.8971 41.6054 14.7995 43.3362C14.6929 45.2293 14.4708 47.1077 14.142 48.9741C13.5538 52.3163 12.6458 55.5719 11.4852 58.7586C11.4483 58.8599 11.4242 58.9661 11.388 59.0915C13.0827 59.7163 14.7491 60.3309 16.4418 60.9549C16.4994 60.8118 16.5484 60.6999 16.5902 60.5854C17.2617 58.7477 17.8499 56.8836 18.356 54.9939C19.4108 51.0566 20.0797 47.0562 20.2499 42.9815C20.3685 40.1443 20.2589 37.3134 19.8371 34.5003C19.7859 34.1588 19.7426 33.8157 19.6903 33.4338C19.9531 33.4474 20.1768 33.4474 20.3979 33.4719C21.9513 33.6428 23.4588 34.0066 24.9215 34.5576C27.425 35.5006 29.6634 36.8924 31.7369 38.5652C31.842 38.65 31.9478 38.7336 32.0777 38.8371C33.2418 37.4434 34.3866 36.0726 35.5631 34.6638C35.4716 34.6016 35.4166 34.57 35.3684 34.5305C33.1175 32.681 30.6938 31.1073 28.0136 29.9478C25.5534 28.8839 22.9941 28.2068 20.3124 28.0294C19.6873 27.988 19.061 27.968 18.3892 27.9364C17.5652 25.2841 16.5081 22.7418 15.1859 20.3116L15.1855 20.312Z" fill="white"/>
</svg>
