<svg width="12" height="15" viewBox="0 0 12 15" fill="none" xmlns="http://www.w3.org/2000/svg">
<path d="M7.156 14.044C8.899 12.51 12 9.376 12 6.5C12 4.9087 11.3679 3.38258 10.2426 2.25736C9.11742 1.13214 7.5913 0.5 6 0.5C4.4087 0.5 2.88258 1.13214 1.75736 2.25736C0.632141 3.38258 2.37122e-08 4.9087 0 6.5C0 9.376 3.1 12.51 4.844 14.044C5.16211 14.3279 5.5736 14.4849 6 14.4849C6.4264 14.4849 6.83789 14.3279 7.156 14.044ZM4 6.5C4 5.96957 4.21071 5.46086 4.58579 5.08579C4.96086 4.71071 5.46957 4.5 6 4.5C6.53043 4.5 7.03914 4.71071 7.41421 5.08579C7.78929 5.46086 8 5.96957 8 6.5C8 7.03043 7.78929 7.53914 7.41421 7.91421C7.03914 8.28929 6.53043 8.5 6 8.5C5.46957 8.5 4.96086 8.28929 4.58579 7.91421C4.21071 7.53914 4 7.03043 4 6.5Z" fill="#595959"/>
</svg>
