<svg width="26" height="26" viewBox="0 0 26 26" fill="none" xmlns="http://www.w3.org/2000/svg">
<path fill-rule="evenodd" clip-rule="evenodd" d="M3.92882 11.9167C3.92882 7.50486 7.50535 3.92833 11.9172 3.92833C16.3291 3.92833 19.9056 7.50486 19.9056 11.9167C19.9056 14.0812 19.0448 16.0446 17.6468 17.4833C17.6157 17.5053 17.5861 17.5301 17.5583 17.5579C17.5305 17.5857 17.5057 17.6153 17.4837 17.6464C16.045 19.0443 14.0817 19.9051 11.9172 19.9051C7.50535 19.9051 3.92882 16.3286 3.92882 11.9167ZM18.0281 18.9869C16.3897 20.4043 14.2536 21.2617 11.9172 21.2617C6.75614 21.2617 2.57227 17.0778 2.57227 11.9167C2.57227 6.75565 6.75614 2.57178 11.9172 2.57178C17.0783 2.57178 21.2622 6.75565 21.2622 11.9167C21.2622 14.2532 20.4047 16.3893 18.9873 18.0277L23.2301 22.2704C23.4949 22.5353 23.4949 22.9648 23.2301 23.2297C22.9652 23.4945 22.5357 23.4945 22.2708 23.2297L18.0281 18.9869Z" fill="#F2BC20"/>
</svg>
