<svg width="32" height="32" viewBox="0 0 32 32" fill="none" xmlns="http://www.w3.org/2000/svg">
<path d="M13.5 3C7.701 3 3 7.701 3 13.5C3 19.299 7.701 24 13.5 24C15.95 24 18.203 23.161 19.989 21.756L26.867 28.634C26.9831 28.7501 27.1209 28.8422 27.2726 28.905C27.4243 28.9678 27.5868 29.0002 27.751 29.0002C27.9152 29.0002 28.0777 28.9678 28.2294 28.905C28.3811 28.8422 28.5189 28.7501 28.635 28.634C28.7511 28.5179 28.8432 28.3801 28.906 28.2284C28.9688 28.0767 29.0012 27.9142 29.0012 27.75C29.0012 27.5858 28.9688 27.4233 28.906 27.2716C28.8432 27.1199 28.7511 26.9821 28.635 26.866L21.756 19.988C23.2126 18.1394 24.0032 15.8535 24 13.5C24 7.701 19.299 3 13.5 3ZM5.5 13.5C5.5 11.3783 6.34285 9.34344 7.84315 7.84315C9.34344 6.34285 11.3783 5.5 13.5 5.5C15.6217 5.5 17.6566 6.34285 19.1569 7.84315C20.6571 9.34344 21.5 11.3783 21.5 13.5C21.5 15.6217 20.6571 17.6566 19.1569 19.1569C17.6566 20.6571 15.6217 21.5 13.5 21.5C11.3783 21.5 9.34344 20.6571 7.84315 19.1569C6.34285 17.6566 5.5 15.6217 5.5 13.5Z" fill="black"/>
</svg>
