<svg width="25" height="24" viewBox="0 0 25 24" fill="none" xmlns="http://www.w3.org/2000/svg">
<path d="M13.834 5.49967C13.834 4.90137 13.349 4.41634 12.7507 4.41634C12.1523 4.41634 11.6673 4.90137 11.6673 5.49967V11.9997C11.6673 12.41 11.8992 12.7851 12.2662 12.9686L16.5995 15.1353C17.1346 15.4029 17.7854 15.186 18.0529 14.6508C18.3205 14.1157 18.1036 13.4649 17.5685 13.1974L13.834 11.3301V5.49967Z" fill="#F2BC20"/>
<path fill-rule="evenodd" clip-rule="evenodd" d="M12.7507 0.0830078C6.16926 0.0830078 0.833984 5.41828 0.833984 11.9997C0.833984 18.5811 6.16926 23.9163 12.7507 23.9163C19.332 23.9163 24.6673 18.5811 24.6673 11.9997C24.6673 5.41828 19.332 0.0830078 12.7507 0.0830078ZM3.00065 11.9997C3.00065 6.6149 7.36587 2.24967 12.7507 2.24967C18.1354 2.24967 22.5006 6.6149 22.5006 11.9997C22.5006 17.3844 18.1354 21.7497 12.7507 21.7497C7.36587 21.7497 3.00065 17.3844 3.00065 11.9997Z" fill="#F2BC20"/>
</svg>
